<svg width="658" height="603" viewBox="0 0 658 603" fill="none" xmlns="http://www.w3.org/2000/svg">
<g filter="url(#filter0_d_287_353)">
<path d="M99.2894 384.635H183.965V186.54L63 99.1448V349.677C63 369.021 79.2698 384.635 99.2894 384.635Z" fill="white"/>
<path d="M474.28 384.635H558.956C579.036 384.635 595.245 368.963 595.245 349.677V99.1448L474.28 186.54" fill="white"/>
<path d="M474.28 35.0572V186.542L595.245 99.1469V52.5362C595.245 9.30479 544.016 -15.3406 508.15 10.5866" fill="white"/>
<path d="M183.965 186.54V35.0551L329.123 139.929L474.28 35.0551V186.54L329.123 291.414" fill="white"/>
<path d="M63 52.5362V99.1469L183.965 186.542V35.0572L150.095 10.5866C114.168 -15.3406 63 9.30479 63 52.5362Z" fill="white"/>
</g>
<g filter="url(#filter1_i_287_353)">
<path d="M138.506 502.644C128.328 502.644 120.264 499.826 114.314 494.189C108.364 488.473 105.389 480.331 105.389 469.762V450.033C105.389 439.463 108.364 431.36 114.314 425.723C120.264 420.008 128.328 417.15 138.506 417.15C148.606 417.15 156.395 419.93 161.876 425.488C167.435 430.969 170.214 438.524 170.214 448.154V448.858H154.947V447.684C154.947 442.83 153.577 438.837 150.837 435.705C148.175 432.574 144.065 431.008 138.506 431.008C133.026 431.008 128.72 432.691 125.588 436.058C122.456 439.424 120.891 444.004 120.891 449.798V469.997C120.891 475.712 122.456 480.292 125.588 483.737C128.72 487.103 133.026 488.787 138.506 488.787C144.065 488.787 148.175 487.221 150.837 484.089C153.577 480.879 154.947 476.886 154.947 472.111V469.997H170.214V471.641C170.214 481.271 167.435 488.865 161.876 494.424C156.395 499.904 148.606 502.644 138.506 502.644ZM211.029 502.644C205.236 502.644 200.03 501.47 195.41 499.121C190.791 496.772 187.151 493.367 184.489 488.904C181.827 484.441 180.496 479.079 180.496 472.815V470.936C180.496 464.673 181.827 459.31 184.489 454.847C187.151 450.385 190.791 446.979 195.41 444.63C200.03 442.282 205.236 441.107 211.029 441.107C216.823 441.107 222.029 442.282 226.649 444.63C231.268 446.979 234.908 450.385 237.57 454.847C240.232 459.31 241.563 464.673 241.563 470.936V472.815C241.563 479.079 240.232 484.441 237.57 488.904C234.908 493.367 231.268 496.772 226.649 499.121C222.029 501.47 216.823 502.644 211.029 502.644ZM211.029 489.491C215.57 489.491 219.328 488.043 222.303 485.146C225.278 482.171 226.766 477.943 226.766 472.463V471.289C226.766 465.808 225.278 461.62 222.303 458.723C219.407 455.748 215.649 454.26 211.029 454.26C206.489 454.26 202.731 455.748 199.756 458.723C196.781 461.62 195.293 465.808 195.293 471.289V472.463C195.293 477.943 196.781 482.171 199.756 485.146C202.731 488.043 206.489 489.491 211.029 489.491ZM255.221 501V442.751H269.784V450.385H271.897C272.837 448.349 274.598 446.431 277.182 444.63C279.766 442.751 283.68 441.812 288.926 441.812C293.467 441.812 297.42 442.869 300.787 444.983C304.232 447.018 306.893 449.876 308.772 453.556C310.651 457.157 311.591 461.385 311.591 466.239V501H296.794V467.413C296.794 463.029 295.698 459.741 293.506 457.548C291.392 455.356 288.339 454.26 284.346 454.26C279.805 454.26 276.282 455.787 273.776 458.84C271.271 461.815 270.018 466.004 270.018 471.406V501H255.221ZM348.294 501C344.458 501 341.327 499.826 338.9 497.477C336.551 495.05 335.376 491.84 335.376 487.847V454.965H320.814V442.751H335.376V424.666H350.173V442.751H366.145V454.965H350.173V485.264C350.173 487.612 351.27 488.787 353.462 488.787H364.736V501H348.294ZM397.624 502.644C393.475 502.644 389.756 501.939 386.468 500.53C383.18 499.043 380.557 496.929 378.6 494.189C376.721 491.37 375.781 487.965 375.781 483.972C375.781 479.979 376.721 476.651 378.6 473.99C380.557 471.249 383.219 469.214 386.585 467.883C390.03 466.474 393.945 465.769 398.329 465.769H414.3V462.481C414.3 459.741 413.439 457.509 411.717 455.787C409.994 453.986 407.254 453.086 403.496 453.086C399.816 453.086 397.076 453.947 395.276 455.669C393.475 457.314 392.3 459.467 391.752 462.128L378.13 457.548C379.069 454.573 380.557 451.872 382.592 449.445C384.706 446.94 387.486 444.944 390.93 443.456C394.453 441.89 398.72 441.107 403.731 441.107C411.403 441.107 417.471 443.025 421.934 446.862C426.396 450.698 428.627 456.257 428.627 463.538V485.264C428.627 487.612 429.724 488.787 431.916 488.787H436.613V501H426.749C423.852 501 421.464 500.295 419.585 498.886C417.706 497.477 416.766 495.598 416.766 493.249V493.132H414.535C414.222 494.071 413.517 495.324 412.421 496.89C411.325 498.377 409.603 499.708 407.254 500.883C404.905 502.057 401.695 502.644 397.624 502.644ZM400.208 490.666C404.357 490.666 407.724 489.53 410.307 487.26C412.969 484.911 414.3 481.819 414.3 477.982V476.808H399.386C396.646 476.808 394.493 477.395 392.927 478.57C391.361 479.744 390.578 481.388 390.578 483.502C390.578 485.616 391.4 487.338 393.044 488.669C394.688 490 397.076 490.666 400.208 490.666ZM473.648 502.644C468.011 502.644 462.883 501.47 458.264 499.121C453.723 496.772 450.121 493.367 447.46 488.904C444.798 484.441 443.467 479.039 443.467 472.698V471.054C443.467 464.712 444.798 459.31 447.46 454.847C450.121 450.385 453.723 446.979 458.264 444.63C462.883 442.282 468.011 441.107 473.648 441.107C479.207 441.107 483.982 442.086 487.975 444.043C491.968 446.001 495.178 448.702 497.605 452.146C500.11 455.513 501.754 459.349 502.537 463.655L488.21 466.709C487.897 464.36 487.192 462.246 486.096 460.367C485 458.488 483.434 457 481.399 455.904C479.441 454.808 476.975 454.26 474 454.26C471.025 454.26 468.324 454.926 465.897 456.257C463.548 457.509 461.669 459.427 460.26 462.011C458.929 464.516 458.264 467.609 458.264 471.289V472.463C458.264 476.143 458.929 479.274 460.26 481.858C461.669 484.363 463.548 486.281 465.897 487.612C468.324 488.865 471.025 489.491 474 489.491C478.463 489.491 481.829 488.356 484.1 486.086C486.448 483.737 487.936 480.683 488.562 476.926L502.89 480.331C501.872 484.481 500.11 488.278 497.605 491.723C495.178 495.089 491.968 497.751 487.975 499.708C483.982 501.665 479.207 502.644 473.648 502.644ZM535.459 501C531.623 501 528.491 499.826 526.064 497.477C523.715 495.05 522.541 491.84 522.541 487.847V454.965H507.979V442.751H522.541V424.666H537.338V442.751H553.309V454.965H537.338V485.264C537.338 487.612 538.434 488.787 540.626 488.787H551.9V501H535.459Z" fill="white"/>
</g>
<defs>
<filter id="filter0_d_287_353" x="63" y="0" width="532.245" height="388.635" filterUnits="userSpaceOnUse" color-interpolation-filters="sRGB">
<feFlood flood-opacity="0" result="BackgroundImageFix"/>
<feColorMatrix in="SourceAlpha" type="matrix" values="0 0 0 0 0 0 0 0 0 0 0 0 0 0 0 0 0 0 127 0" result="hardAlpha"/>
<feOffset dy="4"/>
<feComposite in2="hardAlpha" operator="out"/>
<feColorMatrix type="matrix" values="0 0 0 0 0 0 0 0 0 0 0 0 0 0 0 0 0 0 0.25 0"/>
<feBlend mode="normal" in2="BackgroundImageFix" result="effect1_dropShadow_287_353"/>
<feBlend mode="normal" in="SourceGraphic" in2="effect1_dropShadow_287_353" result="shape"/>
</filter>
<filter id="filter1_i_287_353" x="105.389" y="373.177" width="484.246" height="129.467" filterUnits="userSpaceOnUse" color-interpolation-filters="sRGB">
<feFlood flood-opacity="0" result="BackgroundImageFix"/>
<feBlend mode="normal" in="SourceGraphic" in2="BackgroundImageFix" result="shape"/>
<feColorMatrix in="SourceAlpha" type="matrix" values="0 0 0 0 0 0 0 0 0 0 0 0 0 0 0 0 0 0 127 0" result="hardAlpha"/>
<feOffset dx="36.3255" dy="-43.973"/>
<feGaussianBlur stdDeviation="78.3866"/>
<feComposite in2="hardAlpha" operator="arithmetic" k2="-1" k3="1"/>
<feColorMatrix type="matrix" values="0 0 0 0 0 0 0 0 0 0 0 0 0 0 0 0 0 0 0.1 0"/>
<feBlend mode="normal" in2="shape" result="effect1_innerShadow_287_353"/>
</filter>
</defs>
</svg>
