<svg width="400" height="600" viewBox="0 0 400 600" fill="none" xmlns="http://www.w3.org/2000/svg">
<g filter="url(#filter0_i_829_815)">
<rect width="400" height="600" rx="55.2707" fill="black"/>
</g>
<g filter="url(#filter1_i_829_815)">
<path d="M33.1044 302.205C29.7201 302.205 26.5367 301.373 23.554 299.709C20.6286 297.989 18.2768 295.493 16.4987 292.224C14.7205 288.954 13.8314 284.997 13.8314 280.35V278.974C13.8314 274.328 14.7205 270.37 16.4987 267.1C18.2768 263.831 20.6286 261.364 23.554 259.701C26.4793 257.98 29.6628 257.12 33.1044 257.12C35.6856 257.12 37.8366 257.435 39.5574 258.066C41.3355 258.64 42.7695 259.385 43.8594 260.303C44.9492 261.221 45.7809 262.196 46.3545 263.228H47.9032V240.772H58.7443V301H48.0753V295.838H46.5266C45.5515 297.444 44.0314 298.906 41.9665 300.226C39.9589 301.545 37.0049 302.205 33.1044 302.205ZM36.3739 292.74C39.7008 292.74 42.4827 291.679 44.7198 289.557C46.9568 287.377 48.0753 284.222 48.0753 280.092V279.232C48.0753 275.102 46.9568 271.976 44.7198 269.854C42.5401 267.674 39.7581 266.584 36.3739 266.584C33.047 266.584 30.2651 267.674 28.028 269.854C25.791 271.976 24.6725 275.102 24.6725 279.232V280.092C24.6725 284.222 25.791 287.377 28.028 289.557C30.2651 291.679 33.047 292.74 36.3739 292.74ZM84.0138 302.205C80.9737 302.205 78.2491 301.688 75.84 300.656C73.4309 299.566 71.5093 298.017 70.0753 296.01C68.6987 293.945 68.0104 291.45 68.0104 288.524C68.0104 285.599 68.6987 283.161 70.0753 281.211C71.5093 279.203 73.4596 277.712 75.926 276.737C78.4499 275.704 81.3179 275.188 84.53 275.188H96.2314V272.779C96.2314 270.771 95.6005 269.137 94.3386 267.875C93.0766 266.555 91.0691 265.896 88.3158 265.896C85.6199 265.896 83.6123 266.527 82.293 267.789C80.9737 268.993 80.1133 270.571 79.7118 272.521L69.7312 269.165C70.4195 266.986 71.5093 265.007 73.0007 263.228C74.5494 261.393 76.5857 259.93 79.1095 258.84C81.6907 257.693 84.8168 257.12 88.4879 257.12C94.1091 257.12 98.5545 258.525 101.824 261.336C105.094 264.146 106.728 268.219 106.728 273.553V289.471C106.728 291.191 107.531 292.052 109.137 292.052H112.579V301H105.352C103.229 301 101.48 300.484 100.103 299.451C98.7266 298.419 98.0383 297.042 98.0383 295.321V295.235H96.4035C96.1741 295.924 95.6578 296.841 94.8548 297.989C94.0518 299.078 92.7898 300.054 91.0691 300.914C89.3483 301.774 86.9965 302.205 84.0138 302.205ZM85.9067 293.428C88.9467 293.428 91.4132 292.597 93.3061 290.933C95.2563 289.213 96.2314 286.947 96.2314 284.136V283.276H85.3044C83.2968 283.276 81.7194 283.706 80.5722 284.566C79.425 285.427 78.8514 286.631 78.8514 288.18C78.8514 289.729 79.4537 290.991 80.6582 291.966C81.8628 292.941 83.6123 293.428 85.9067 293.428ZM120.505 301V258.324H131.174V263.917H132.723C133.411 262.425 134.702 261.02 136.595 259.701C138.488 258.324 141.356 257.636 145.199 257.636C148.526 257.636 151.422 258.41 153.889 259.959C156.413 261.45 158.363 263.544 159.74 266.24C161.116 268.878 161.805 271.976 161.805 275.532V301H150.964V276.393C150.964 273.18 150.161 270.771 148.554 269.165C147.006 267.559 144.769 266.756 141.843 266.756C138.516 266.756 135.935 267.875 134.1 270.112C132.264 272.291 131.346 275.36 131.346 279.318V301H120.505ZM173.524 301V258.324H184.365V301H173.524ZM178.945 253.334C176.994 253.334 175.331 252.703 173.954 251.441C172.635 250.179 171.975 248.516 171.975 246.451C171.975 244.386 172.635 242.722 173.954 241.46C175.331 240.198 176.994 239.568 178.945 239.568C180.952 239.568 182.616 240.198 183.935 241.46C185.254 242.722 185.914 244.386 185.914 246.451C185.914 248.516 185.254 250.179 183.935 251.441C182.616 252.703 180.952 253.334 178.945 253.334ZM215.824 302.205C211.579 302.205 207.822 301.315 204.552 299.537C201.34 297.702 198.816 295.149 196.981 291.88C195.203 288.553 194.314 284.652 194.314 280.178V279.146C194.314 274.672 195.203 270.8 196.981 267.53C198.759 264.204 201.254 261.651 204.466 259.873C207.678 258.037 211.407 257.12 215.651 257.12C219.839 257.12 223.481 258.066 226.579 259.959C229.676 261.794 232.085 264.376 233.806 267.703C235.527 270.972 236.387 274.787 236.387 279.146V282.846H205.327C205.441 285.771 206.531 288.151 208.596 289.987C210.661 291.822 213.185 292.74 216.168 292.74C219.208 292.74 221.445 292.081 222.879 290.761C224.313 289.442 225.403 287.979 226.148 286.373L235.01 291.019C234.207 292.511 233.031 294.145 231.483 295.924C229.991 297.644 227.984 299.136 225.46 300.398C222.936 301.602 219.724 302.205 215.824 302.205ZM205.413 274.758H225.374C225.145 272.291 224.141 270.312 222.363 268.821C220.642 267.33 218.376 266.584 215.565 266.584C212.64 266.584 210.317 267.33 208.596 268.821C206.875 270.312 205.814 272.291 205.413 274.758ZM246.036 301V240.772H256.877V301H246.036ZM303.987 302.205C300.947 302.205 298.222 301.688 295.813 300.656C293.404 299.566 291.482 298.017 290.048 296.01C288.672 293.945 287.983 291.45 287.983 288.524C287.983 285.599 288.672 283.161 290.048 281.211C291.482 279.203 293.433 277.712 295.899 276.737C298.423 275.704 301.291 275.188 304.503 275.188H316.205V272.779C316.205 270.771 315.574 269.137 314.312 267.875C313.05 266.555 311.042 265.896 308.289 265.896C305.593 265.896 303.585 266.527 302.266 267.789C300.947 268.993 300.086 270.571 299.685 272.521L289.704 269.165C290.393 266.986 291.482 265.007 292.974 263.228C294.522 261.393 296.559 259.93 299.083 258.84C301.664 257.693 304.79 257.12 308.461 257.12C314.082 257.12 318.528 258.525 321.797 261.336C325.067 264.146 326.701 268.219 326.701 273.553V289.471C326.701 291.191 327.504 292.052 329.111 292.052H332.552V301H325.325C323.202 301 321.453 300.484 320.076 299.451C318.7 298.419 318.011 297.042 318.011 295.321V295.235H316.377C316.147 295.924 315.631 296.841 314.828 297.989C314.025 299.078 312.763 300.054 311.042 300.914C309.321 301.774 306.97 302.205 303.987 302.205ZM305.88 293.428C308.92 293.428 311.386 292.597 313.279 290.933C315.229 289.213 316.205 286.947 316.205 284.136V283.276H305.277C303.27 283.276 301.692 283.706 300.545 284.566C299.398 285.427 298.824 286.631 298.824 288.18C298.824 289.729 299.427 290.991 300.631 291.966C301.836 292.941 303.585 293.428 305.88 293.428ZM340.479 318.208V258.324H351.147V263.487H352.696C353.671 261.823 355.191 260.36 357.256 259.099C359.321 257.779 362.275 257.12 366.118 257.12C369.56 257.12 372.744 257.98 375.669 259.701C378.594 261.364 380.946 263.831 382.724 267.1C384.502 270.37 385.391 274.328 385.391 278.974V280.35C385.391 284.997 384.502 288.954 382.724 292.224C380.946 295.493 378.594 297.989 375.669 299.709C372.744 301.373 369.56 302.205 366.118 302.205C363.537 302.205 361.358 301.889 359.579 301.258C357.859 300.685 356.453 299.939 355.363 299.021C354.331 298.046 353.499 297.071 352.868 296.096H351.32V318.208H340.479ZM362.849 292.74C366.233 292.74 369.015 291.679 371.195 289.557C373.432 287.377 374.55 284.222 374.55 280.092V279.232C374.55 275.102 373.432 271.976 371.195 269.854C368.958 267.674 366.176 266.584 362.849 266.584C359.522 266.584 356.74 267.674 354.503 269.854C352.266 271.976 351.147 275.102 351.147 279.232V280.092C351.147 284.222 352.266 287.377 354.503 289.557C356.74 291.679 359.522 292.74 362.849 292.74Z" fill="white"/>
</g>
<g filter="url(#filter2_i_829_815)">
<path d="M127.738 346V328.64H132.078V330.53H132.708C133.011 329.947 133.513 329.445 134.213 329.025C134.913 328.582 135.834 328.36 136.978 328.36C138.214 328.36 139.206 328.605 139.953 329.095C140.699 329.562 141.271 330.18 141.668 330.95H142.298C142.694 330.203 143.254 329.585 143.978 329.095C144.701 328.605 145.728 328.36 147.058 328.36C148.131 328.36 149.099 328.593 149.963 329.06C150.849 329.503 151.549 330.192 152.063 331.125C152.599 332.035 152.868 333.19 152.868 334.59V346H148.458V334.905C148.458 333.948 148.213 333.237 147.723 332.77C147.233 332.28 146.544 332.035 145.658 332.035C144.654 332.035 143.873 332.362 143.313 333.015C142.776 333.645 142.508 334.555 142.508 335.745V346H138.098V334.905C138.098 333.948 137.853 333.237 137.363 332.77C136.873 332.28 136.184 332.035 135.298 332.035C134.294 332.035 133.513 332.362 132.953 333.015C132.416 333.645 132.148 334.555 132.148 335.745V346H127.738ZM163.952 346.28C162.599 346.28 161.409 345.977 160.382 345.37C159.379 344.74 158.597 343.877 158.037 342.78C157.477 341.683 157.197 340.423 157.197 339V328.64H161.607V338.65C161.607 339.957 161.922 340.937 162.552 341.59C163.206 342.243 164.127 342.57 165.317 342.57C166.671 342.57 167.721 342.127 168.467 341.24C169.214 340.33 169.587 339.07 169.587 337.46V328.64H173.997V346H169.657V343.725H169.027C168.747 344.308 168.222 344.88 167.452 345.44C166.682 346 165.516 346.28 163.952 346.28ZM186.115 346.49C183.851 346.49 181.996 346 180.55 345.02C179.103 344.04 178.228 342.64 177.925 340.82L181.985 339.77C182.148 340.587 182.416 341.228 182.79 341.695C183.186 342.162 183.665 342.5 184.225 342.71C184.808 342.897 185.438 342.99 186.115 342.99C187.141 342.99 187.9 342.815 188.39 342.465C188.88 342.092 189.125 341.637 189.125 341.1C189.125 340.563 188.891 340.155 188.425 339.875C187.958 339.572 187.211 339.327 186.185 339.14L185.205 338.965C183.991 338.732 182.883 338.417 181.88 338.02C180.876 337.6 180.071 337.028 179.465 336.305C178.858 335.582 178.555 334.648 178.555 333.505C178.555 331.778 179.185 330.46 180.445 329.55C181.705 328.617 183.361 328.15 185.415 328.15C187.351 328.15 188.961 328.582 190.245 329.445C191.528 330.308 192.368 331.44 192.765 332.84L188.67 334.1C188.483 333.213 188.098 332.583 187.515 332.21C186.955 331.837 186.255 331.65 185.415 331.65C184.575 331.65 183.933 331.802 183.49 332.105C183.046 332.385 182.825 332.782 182.825 333.295C182.825 333.855 183.058 334.275 183.525 334.555C183.991 334.812 184.621 335.01 185.415 335.15L186.395 335.325C187.701 335.558 188.88 335.873 189.93 336.27C191.003 336.643 191.843 337.192 192.45 337.915C193.08 338.615 193.395 339.572 193.395 340.785C193.395 342.605 192.73 344.017 191.4 345.02C190.093 346 188.331 346.49 186.115 346.49ZM197.259 346V328.64H201.669V346H197.259ZM199.464 326.61C198.671 326.61 197.994 326.353 197.434 325.84C196.897 325.327 196.629 324.65 196.629 323.81C196.629 322.97 196.897 322.293 197.434 321.78C197.994 321.267 198.671 321.01 199.464 321.01C200.281 321.01 200.957 321.267 201.494 321.78C202.031 322.293 202.299 322.97 202.299 323.81C202.299 324.65 202.031 325.327 201.494 325.84C200.957 326.353 200.281 326.61 199.464 326.61ZM214.711 346.49C213.031 346.49 211.503 346.14 210.126 345.44C208.773 344.74 207.699 343.725 206.906 342.395C206.113 341.065 205.716 339.455 205.716 337.565V337.075C205.716 335.185 206.113 333.575 206.906 332.245C207.699 330.915 208.773 329.9 210.126 329.2C211.503 328.5 213.031 328.15 214.711 328.15C216.368 328.15 217.791 328.442 218.981 329.025C220.171 329.608 221.128 330.413 221.851 331.44C222.598 332.443 223.088 333.587 223.321 334.87L219.051 335.78C218.958 335.08 218.748 334.45 218.421 333.89C218.094 333.33 217.628 332.887 217.021 332.56C216.438 332.233 215.703 332.07 214.816 332.07C213.929 332.07 213.124 332.268 212.401 332.665C211.701 333.038 211.141 333.61 210.721 334.38C210.324 335.127 210.126 336.048 210.126 337.145V337.495C210.126 338.592 210.324 339.525 210.721 340.295C211.141 341.042 211.701 341.613 212.401 342.01C213.124 342.383 213.929 342.57 214.816 342.57C216.146 342.57 217.149 342.232 217.826 341.555C218.526 340.855 218.969 339.945 219.156 338.825L223.426 339.84C223.123 341.077 222.598 342.208 221.851 343.235C221.128 344.238 220.171 345.032 218.981 345.615C217.791 346.198 216.368 346.49 214.711 346.49ZM227.064 346V328.64H231.474V346H227.064ZM229.269 326.61C228.475 326.61 227.799 326.353 227.239 325.84C226.702 325.327 226.434 324.65 226.434 323.81C226.434 322.97 226.702 322.293 227.239 321.78C227.799 321.267 228.475 321.01 229.269 321.01C230.085 321.01 230.762 321.267 231.299 321.78C231.835 322.293 232.104 322.97 232.104 323.81C232.104 324.65 231.835 325.327 231.299 325.84C230.762 326.353 230.085 326.61 229.269 326.61ZM241.751 346.49C240.514 346.49 239.406 346.28 238.426 345.86C237.446 345.417 236.664 344.787 236.081 343.97C235.521 343.13 235.241 342.115 235.241 340.925C235.241 339.735 235.521 338.743 236.081 337.95C236.664 337.133 237.457 336.527 238.461 336.13C239.487 335.71 240.654 335.5 241.961 335.5H246.721V334.52C246.721 333.703 246.464 333.038 245.951 332.525C245.437 331.988 244.621 331.72 243.501 331.72C242.404 331.72 241.587 331.977 241.051 332.49C240.514 332.98 240.164 333.622 240.001 334.415L235.941 333.05C236.221 332.163 236.664 331.358 237.271 330.635C237.901 329.888 238.729 329.293 239.756 328.85C240.806 328.383 242.077 328.15 243.571 328.15C245.857 328.15 247.666 328.722 248.996 329.865C250.326 331.008 250.991 332.665 250.991 334.835V341.31C250.991 342.01 251.317 342.36 251.971 342.36H253.371V346H250.431C249.567 346 248.856 345.79 248.296 345.37C247.736 344.95 247.456 344.39 247.456 343.69V343.655H246.791C246.697 343.935 246.487 344.308 246.161 344.775C245.834 345.218 245.321 345.615 244.621 345.965C243.921 346.315 242.964 346.49 241.751 346.49ZM242.521 342.92C243.757 342.92 244.761 342.582 245.531 341.905C246.324 341.205 246.721 340.283 246.721 339.14V338.79H242.276C241.459 338.79 240.817 338.965 240.351 339.315C239.884 339.665 239.651 340.155 239.651 340.785C239.651 341.415 239.896 341.928 240.386 342.325C240.876 342.722 241.587 342.92 242.521 342.92ZM256.595 346V328.64H260.935V330.915H261.565C261.845 330.308 262.37 329.737 263.14 329.2C263.91 328.64 265.077 328.36 266.64 328.36C267.993 328.36 269.172 328.675 270.175 329.305C271.202 329.912 271.995 330.763 272.555 331.86C273.115 332.933 273.395 334.193 273.395 335.64V346H268.985V335.99C268.985 334.683 268.658 333.703 268.005 333.05C267.375 332.397 266.465 332.07 265.275 332.07C263.922 332.07 262.872 332.525 262.125 333.435C261.378 334.322 261.005 335.57 261.005 337.18V346H256.595ZM125.208 398V373.64H129.548V375.74H130.178C130.575 375.063 131.193 374.468 132.033 373.955C132.873 373.418 134.075 373.15 135.638 373.15C137.038 373.15 138.333 373.5 139.523 374.2C140.713 374.877 141.67 375.88 142.393 377.21C143.117 378.54 143.478 380.15 143.478 382.04V382.6C143.478 384.49 143.117 386.1 142.393 387.43C141.67 388.76 140.713 389.775 139.523 390.475C138.333 391.152 137.038 391.49 135.638 391.49C134.588 391.49 133.702 391.362 132.978 391.105C132.278 390.872 131.707 390.568 131.263 390.195C130.843 389.798 130.505 389.402 130.248 389.005H129.618V398H125.208ZM134.308 387.64C135.685 387.64 136.817 387.208 137.703 386.345C138.613 385.458 139.068 384.175 139.068 382.495V382.145C139.068 380.465 138.613 379.193 137.703 378.33C136.793 377.443 135.662 377 134.308 377C132.955 377 131.823 377.443 130.913 378.33C130.003 379.193 129.548 380.465 129.548 382.145V382.495C129.548 384.175 130.003 385.458 130.913 386.345C131.823 387.208 132.955 387.64 134.308 387.64ZM147.528 391V373.64H151.868V375.6H152.498C152.754 374.9 153.174 374.387 153.758 374.06C154.364 373.733 155.064 373.57 155.858 373.57H157.958V377.49H155.788C154.668 377.49 153.746 377.793 153.023 378.4C152.299 378.983 151.938 379.893 151.938 381.13V391H147.528ZM169.049 391.49C167.323 391.49 165.771 391.14 164.394 390.44C163.018 389.74 161.933 388.725 161.139 387.395C160.346 386.065 159.949 384.467 159.949 382.6V382.04C159.949 380.173 160.346 378.575 161.139 377.245C161.933 375.915 163.018 374.9 164.394 374.2C165.771 373.5 167.323 373.15 169.049 373.15C170.776 373.15 172.328 373.5 173.704 374.2C175.081 374.9 176.166 375.915 176.959 377.245C177.753 378.575 178.149 380.173 178.149 382.04V382.6C178.149 384.467 177.753 386.065 176.959 387.395C176.166 388.725 175.081 389.74 173.704 390.44C172.328 391.14 170.776 391.49 169.049 391.49ZM169.049 387.57C170.403 387.57 171.523 387.138 172.409 386.275C173.296 385.388 173.739 384.128 173.739 382.495V382.145C173.739 380.512 173.296 379.263 172.409 378.4C171.546 377.513 170.426 377.07 169.049 377.07C167.696 377.07 166.576 377.513 165.689 378.4C164.803 379.263 164.359 380.512 164.359 382.145V382.495C164.359 384.128 164.803 385.388 165.689 386.275C166.576 387.138 167.696 387.57 169.049 387.57ZM189.22 391.49C187.843 391.49 186.548 391.152 185.335 390.475C184.145 389.775 183.188 388.76 182.465 387.43C181.742 386.1 181.38 384.49 181.38 382.6V382.04C181.38 380.15 181.742 378.54 182.465 377.21C183.188 375.88 184.145 374.877 185.335 374.2C186.525 373.5 187.82 373.15 189.22 373.15C190.27 373.15 191.145 373.278 191.845 373.535C192.568 373.768 193.152 374.072 193.595 374.445C194.038 374.818 194.377 375.215 194.61 375.635H195.24V366.5H199.65V391H195.31V388.9H194.68C194.283 389.553 193.665 390.148 192.825 390.685C192.008 391.222 190.807 391.49 189.22 391.49ZM190.55 387.64C191.903 387.64 193.035 387.208 193.945 386.345C194.855 385.458 195.31 384.175 195.31 382.495V382.145C195.31 380.465 194.855 379.193 193.945 378.33C193.058 377.443 191.927 377 190.55 377C189.197 377 188.065 377.443 187.155 378.33C186.245 379.193 185.79 380.465 185.79 382.145V382.495C185.79 384.175 186.245 385.458 187.155 386.345C188.065 387.208 189.197 387.64 190.55 387.64ZM211.154 391.28C209.801 391.28 208.611 390.977 207.584 390.37C206.581 389.74 205.799 388.877 205.239 387.78C204.679 386.683 204.399 385.423 204.399 384V373.64H208.809V383.65C208.809 384.957 209.124 385.937 209.754 386.59C210.408 387.243 211.329 387.57 212.519 387.57C213.873 387.57 214.923 387.127 215.669 386.24C216.416 385.33 216.789 384.07 216.789 382.46V373.64H221.199V391H216.859V388.725H216.229C215.949 389.308 215.424 389.88 214.654 390.44C213.884 391 212.718 391.28 211.154 391.28ZM234.262 391.49C232.582 391.49 231.053 391.14 229.677 390.44C228.323 389.74 227.25 388.725 226.457 387.395C225.663 386.065 225.267 384.455 225.267 382.565V382.075C225.267 380.185 225.663 378.575 226.457 377.245C227.25 375.915 228.323 374.9 229.677 374.2C231.053 373.5 232.582 373.15 234.262 373.15C235.918 373.15 237.342 373.442 238.532 374.025C239.722 374.608 240.678 375.413 241.402 376.44C242.148 377.443 242.638 378.587 242.872 379.87L238.602 380.78C238.508 380.08 238.298 379.45 237.972 378.89C237.645 378.33 237.178 377.887 236.572 377.56C235.988 377.233 235.253 377.07 234.367 377.07C233.48 377.07 232.675 377.268 231.952 377.665C231.252 378.038 230.692 378.61 230.272 379.38C229.875 380.127 229.677 381.048 229.677 382.145V382.495C229.677 383.592 229.875 384.525 230.272 385.295C230.692 386.042 231.252 386.613 231.952 387.01C232.675 387.383 233.48 387.57 234.367 387.57C235.697 387.57 236.7 387.232 237.377 386.555C238.077 385.855 238.52 384.945 238.707 383.825L242.977 384.84C242.673 386.077 242.148 387.208 241.402 388.235C240.678 389.238 239.722 390.032 238.532 390.615C237.342 391.198 235.918 391.49 234.262 391.49ZM254.525 391.49C252.798 391.49 251.27 391.128 249.94 390.405C248.633 389.658 247.606 388.62 246.86 387.29C246.136 385.937 245.775 384.35 245.775 382.53V382.11C245.775 380.29 246.136 378.715 246.86 377.385C247.583 376.032 248.598 374.993 249.905 374.27C251.211 373.523 252.728 373.15 254.455 373.15C256.158 373.15 257.64 373.535 258.9 374.305C260.16 375.052 261.14 376.102 261.84 377.455C262.54 378.785 262.89 380.337 262.89 382.11V383.615H250.255C250.301 384.805 250.745 385.773 251.585 386.52C252.425 387.267 253.451 387.64 254.665 387.64C255.901 387.64 256.811 387.372 257.395 386.835C257.978 386.298 258.421 385.703 258.725 385.05L262.33 386.94C262.003 387.547 261.525 388.212 260.895 388.935C260.288 389.635 259.471 390.242 258.445 390.755C257.418 391.245 256.111 391.49 254.525 391.49ZM250.29 380.325H258.41C258.316 379.322 257.908 378.517 257.185 377.91C256.485 377.303 255.563 377 254.42 377C253.23 377 252.285 377.303 251.585 377.91C250.885 378.517 250.453 379.322 250.29 380.325ZM266.815 391V373.64H271.155V375.6H271.785C272.041 374.9 272.461 374.387 273.045 374.06C273.651 373.733 274.351 373.57 275.145 373.57H277.245V377.49H275.075C273.955 377.49 273.033 377.793 272.31 378.4C271.586 378.983 271.225 379.893 271.225 381.13V391H266.815ZM82.0973 436.49C80.8607 436.49 79.7523 436.28 78.7723 435.86C77.7923 435.417 77.0107 434.787 76.4273 433.97C75.8673 433.13 75.5873 432.115 75.5873 430.925C75.5873 429.735 75.8673 428.743 76.4273 427.95C77.0107 427.133 77.804 426.527 78.8073 426.13C79.834 425.71 81.0007 425.5 82.3073 425.5H87.0673V424.52C87.0673 423.703 86.8107 423.038 86.2973 422.525C85.784 421.988 84.9673 421.72 83.8473 421.72C82.7507 421.72 81.934 421.977 81.3973 422.49C80.8607 422.98 80.5107 423.622 80.3473 424.415L76.2873 423.05C76.5673 422.163 77.0107 421.358 77.6173 420.635C78.2473 419.888 79.0757 419.293 80.1023 418.85C81.1523 418.383 82.424 418.15 83.9173 418.15C86.204 418.15 88.0123 418.722 89.3423 419.865C90.6723 421.008 91.3373 422.665 91.3373 424.835V431.31C91.3373 432.01 91.664 432.36 92.3173 432.36H93.7173V436H90.7773C89.914 436 89.2023 435.79 88.6423 435.37C88.0823 434.95 87.8023 434.39 87.8023 433.69V433.655H87.1373C87.044 433.935 86.834 434.308 86.5073 434.775C86.1807 435.218 85.6673 435.615 84.9673 435.965C84.2673 436.315 83.3107 436.49 82.0973 436.49ZM82.8673 432.92C84.104 432.92 85.1073 432.582 85.8773 431.905C86.6707 431.205 87.0673 430.283 87.0673 429.14V428.79H82.6223C81.8057 428.79 81.164 428.965 80.6973 429.315C80.2307 429.665 79.9973 430.155 79.9973 430.785C79.9973 431.415 80.2423 431.928 80.7323 432.325C81.2223 432.722 81.934 432.92 82.8673 432.92ZM103.078 436.28C101.725 436.28 100.535 435.977 99.5082 435.37C98.5049 434.74 97.7232 433.877 97.1632 432.78C96.6032 431.683 96.3232 430.423 96.3232 429V418.64H100.733V428.65C100.733 429.957 101.048 430.937 101.678 431.59C102.332 432.243 103.253 432.57 104.443 432.57C105.797 432.57 106.847 432.127 107.593 431.24C108.34 430.33 108.713 429.07 108.713 427.46V418.64H113.123V436H108.783V433.725H108.153C107.873 434.308 107.348 434.88 106.578 435.44C105.808 436 104.642 436.28 103.078 436.28ZM125.031 436.49C123.654 436.49 122.359 436.152 121.146 435.475C119.956 434.775 118.999 433.76 118.276 432.43C117.552 431.1 117.191 429.49 117.191 427.6V427.04C117.191 425.15 117.552 423.54 118.276 422.21C118.999 420.88 119.956 419.877 121.146 419.2C122.336 418.5 123.631 418.15 125.031 418.15C126.081 418.15 126.956 418.278 127.656 418.535C128.379 418.768 128.962 419.072 129.406 419.445C129.849 419.818 130.187 420.215 130.421 420.635H131.051V411.5H135.461V436H131.121V433.9H130.491C130.094 434.553 129.476 435.148 128.636 435.685C127.819 436.222 126.617 436.49 125.031 436.49ZM126.361 432.64C127.714 432.64 128.846 432.208 129.756 431.345C130.666 430.458 131.121 429.175 131.121 427.495V427.145C131.121 425.465 130.666 424.193 129.756 423.33C128.869 422.443 127.737 422 126.361 422C125.007 422 123.876 422.443 122.966 423.33C122.056 424.193 121.601 425.465 121.601 427.145V427.495C121.601 429.175 122.056 430.458 122.966 431.345C123.876 432.208 125.007 432.64 126.361 432.64ZM140.35 436V418.64H144.76V436H140.35ZM142.555 416.61C141.762 416.61 141.085 416.353 140.525 415.84C139.988 415.327 139.72 414.65 139.72 413.81C139.72 412.97 139.988 412.293 140.525 411.78C141.085 411.267 141.762 411.01 142.555 411.01C143.372 411.01 144.048 411.267 144.585 411.78C145.122 412.293 145.39 412.97 145.39 413.81C145.39 414.65 145.122 415.327 144.585 415.84C144.048 416.353 143.372 416.61 142.555 416.61ZM157.907 436.49C156.18 436.49 154.628 436.14 153.252 435.44C151.875 434.74 150.79 433.725 149.997 432.395C149.203 431.065 148.807 429.467 148.807 427.6V427.04C148.807 425.173 149.203 423.575 149.997 422.245C150.79 420.915 151.875 419.9 153.252 419.2C154.628 418.5 156.18 418.15 157.907 418.15C159.633 418.15 161.185 418.5 162.562 419.2C163.938 419.9 165.023 420.915 165.817 422.245C166.61 423.575 167.007 425.173 167.007 427.04V427.6C167.007 429.467 166.61 431.065 165.817 432.395C165.023 433.725 163.938 434.74 162.562 435.44C161.185 436.14 159.633 436.49 157.907 436.49ZM157.907 432.57C159.26 432.57 160.38 432.138 161.267 431.275C162.153 430.388 162.597 429.128 162.597 427.495V427.145C162.597 425.512 162.153 424.263 161.267 423.4C160.403 422.513 159.283 422.07 157.907 422.07C156.553 422.07 155.433 422.513 154.547 423.4C153.66 424.263 153.217 425.512 153.217 427.145V427.495C153.217 429.128 153.66 430.388 154.547 431.275C155.433 432.138 156.553 432.57 157.907 432.57ZM187.874 436.49C186.147 436.49 184.619 436.128 183.289 435.405C181.982 434.658 180.956 433.62 180.209 432.29C179.486 430.937 179.124 429.35 179.124 427.53V427.11C179.124 425.29 179.486 423.715 180.209 422.385C180.932 421.032 181.947 419.993 183.254 419.27C184.561 418.523 186.077 418.15 187.804 418.15C189.507 418.15 190.989 418.535 192.249 419.305C193.509 420.052 194.489 421.102 195.189 422.455C195.889 423.785 196.239 425.337 196.239 427.11V428.615H183.604C183.651 429.805 184.094 430.773 184.934 431.52C185.774 432.267 186.801 432.64 188.014 432.64C189.251 432.64 190.161 432.372 190.744 431.835C191.327 431.298 191.771 430.703 192.074 430.05L195.679 431.94C195.352 432.547 194.874 433.212 194.244 433.935C193.637 434.635 192.821 435.242 191.794 435.755C190.767 436.245 189.461 436.49 187.874 436.49ZM183.639 425.325H191.759C191.666 424.322 191.257 423.517 190.534 422.91C189.834 422.303 188.912 422 187.769 422C186.579 422 185.634 422.303 184.934 422.91C184.234 423.517 183.802 424.322 183.639 425.325ZM200.164 436V418.64H204.504V420.915H205.134C205.414 420.308 205.939 419.737 206.709 419.2C207.479 418.64 208.646 418.36 210.209 418.36C211.563 418.36 212.741 418.675 213.744 419.305C214.771 419.912 215.564 420.763 216.124 421.86C216.684 422.933 216.964 424.193 216.964 425.64V436H212.554V425.99C212.554 424.683 212.228 423.703 211.574 423.05C210.944 422.397 210.034 422.07 208.844 422.07C207.491 422.07 206.441 422.525 205.694 423.435C204.948 424.322 204.574 425.57 204.574 427.18V436H200.164ZM220.892 427.39V426.83C220.892 425.01 221.253 423.458 221.977 422.175C222.7 420.868 223.657 419.877 224.847 419.2C226.06 418.5 227.378 418.15 228.802 418.15C230.388 418.15 231.59 418.43 232.407 418.99C233.223 419.55 233.818 420.133 234.192 420.74H234.822V418.64H239.162V439.08C239.162 440.27 238.812 441.215 238.112 441.915C237.412 442.638 236.478 443 235.312 443H223.692V439.15H233.772C234.425 439.15 234.752 438.8 234.752 438.1V433.585H234.122C233.888 433.958 233.562 434.343 233.142 434.74C232.722 435.113 232.162 435.428 231.462 435.685C230.762 435.942 229.875 436.07 228.802 436.07C227.378 436.07 226.06 435.732 224.847 435.055C223.657 434.355 222.7 433.363 221.977 432.08C221.253 430.773 220.892 429.21 220.892 427.39ZM230.062 432.22C231.415 432.22 232.547 431.788 233.457 430.925C234.367 430.062 234.822 428.848 234.822 427.285V426.935C234.822 425.348 234.367 424.135 233.457 423.295C232.57 422.432 231.438 422 230.062 422C228.708 422 227.577 422.432 226.667 423.295C225.757 424.135 225.302 425.348 225.302 426.935V427.285C225.302 428.848 225.757 430.062 226.667 430.925C227.577 431.788 228.708 432.22 230.062 432.22ZM244.051 436V418.64H248.461V436H244.051ZM246.256 416.61C245.463 416.61 244.786 416.353 244.226 415.84C243.689 415.327 243.421 414.65 243.421 413.81C243.421 412.97 243.689 412.293 244.226 411.78C244.786 411.267 245.463 411.01 246.256 411.01C247.073 411.01 247.749 411.267 248.286 411.78C248.823 412.293 249.091 412.97 249.091 413.81C249.091 414.65 248.823 415.327 248.286 415.84C247.749 416.353 247.073 416.61 246.256 416.61ZM253.348 436V418.64H257.688V420.915H258.318C258.598 420.308 259.123 419.737 259.893 419.2C260.663 418.64 261.83 418.36 263.393 418.36C264.746 418.36 265.925 418.675 266.928 419.305C267.955 419.912 268.748 420.763 269.308 421.86C269.868 422.933 270.148 424.193 270.148 425.64V436H265.738V425.99C265.738 424.683 265.411 423.703 264.758 423.05C264.128 422.397 263.218 422.07 262.028 422.07C260.675 422.07 259.625 422.525 258.878 423.435C258.131 424.322 257.758 425.57 257.758 427.18V436H253.348ZM282.825 436.49C281.099 436.49 279.57 436.128 278.24 435.405C276.934 434.658 275.907 433.62 275.16 432.29C274.437 430.937 274.075 429.35 274.075 427.53V427.11C274.075 425.29 274.437 423.715 275.16 422.385C275.884 421.032 276.899 419.993 278.205 419.27C279.512 418.523 281.029 418.15 282.755 418.15C284.459 418.15 285.94 418.535 287.2 419.305C288.46 420.052 289.44 421.102 290.14 422.455C290.84 423.785 291.19 425.337 291.19 427.11V428.615H278.555C278.602 429.805 279.045 430.773 279.885 431.52C280.725 432.267 281.752 432.64 282.965 432.64C284.202 432.64 285.112 432.372 285.695 431.835C286.279 431.298 286.722 430.703 287.025 430.05L290.63 431.94C290.304 432.547 289.825 433.212 289.195 433.935C288.589 434.635 287.772 435.242 286.745 435.755C285.719 436.245 284.412 436.49 282.825 436.49ZM278.59 425.325H286.71C286.617 424.322 286.209 423.517 285.485 422.91C284.785 422.303 283.864 422 282.72 422C281.53 422 280.585 422.303 279.885 422.91C279.185 423.517 278.754 424.322 278.59 425.325ZM303.026 436.49C301.299 436.49 299.771 436.128 298.441 435.405C297.134 434.658 296.107 433.62 295.361 432.29C294.637 430.937 294.276 429.35 294.276 427.53V427.11C294.276 425.29 294.637 423.715 295.361 422.385C296.084 421.032 297.099 419.993 298.406 419.27C299.712 418.523 301.229 418.15 302.956 418.15C304.659 418.15 306.141 418.535 307.401 419.305C308.661 420.052 309.641 421.102 310.341 422.455C311.041 423.785 311.391 425.337 311.391 427.11V428.615H298.756C298.802 429.805 299.246 430.773 300.086 431.52C300.926 432.267 301.952 432.64 303.166 432.64C304.402 432.64 305.312 432.372 305.896 431.835C306.479 431.298 306.922 430.703 307.226 430.05L310.831 431.94C310.504 432.547 310.026 433.212 309.396 433.935C308.789 434.635 307.972 435.242 306.946 435.755C305.919 436.245 304.612 436.49 303.026 436.49ZM298.791 425.325H306.911C306.817 424.322 306.409 423.517 305.686 422.91C304.986 422.303 304.064 422 302.921 422C301.731 422 300.786 422.303 300.086 422.91C299.386 423.517 298.954 424.322 298.791 425.325ZM315.316 436V418.64H319.656V420.6H320.286C320.542 419.9 320.962 419.387 321.546 419.06C322.152 418.733 322.852 418.57 323.646 418.57H325.746V422.49H323.576C322.456 422.49 321.534 422.793 320.811 423.4C320.087 423.983 319.726 424.893 319.726 426.13V436H315.316Z" fill="#864DFF"/>
<path d="M72.2436 481V456.5H76.8636V476.8H88.0636V481H72.2436ZM99.6133 481.49C97.8867 481.49 96.335 481.14 94.9583 480.44C93.5817 479.74 92.4967 478.725 91.7033 477.395C90.91 476.065 90.5133 474.467 90.5133 472.6V472.04C90.5133 470.173 90.91 468.575 91.7033 467.245C92.4967 465.915 93.5817 464.9 94.9583 464.2C96.335 463.5 97.8867 463.15 99.6133 463.15C101.34 463.15 102.892 463.5 104.268 464.2C105.645 464.9 106.73 465.915 107.523 467.245C108.317 468.575 108.713 470.173 108.713 472.04V472.6C108.713 474.467 108.317 476.065 107.523 477.395C106.73 478.725 105.645 479.74 104.268 480.44C102.892 481.14 101.34 481.49 99.6133 481.49ZM99.6133 477.57C100.967 477.57 102.087 477.138 102.973 476.275C103.86 475.388 104.303 474.128 104.303 472.495V472.145C104.303 470.512 103.86 469.263 102.973 468.4C102.11 467.513 100.99 467.07 99.6133 467.07C98.26 467.07 97.14 467.513 96.2533 468.4C95.3667 469.263 94.9233 470.512 94.9233 472.145V472.495C94.9233 474.128 95.3667 475.388 96.2533 476.275C97.14 477.138 98.26 477.57 99.6133 477.57ZM112.784 481V463.64H117.124V465.915H117.754C118.034 465.308 118.559 464.737 119.329 464.2C120.099 463.64 121.266 463.36 122.829 463.36C124.182 463.36 125.361 463.675 126.364 464.305C127.391 464.912 128.184 465.763 128.744 466.86C129.304 467.933 129.584 469.193 129.584 470.64V481H125.174V470.99C125.174 469.683 124.847 468.703 124.194 468.05C123.564 467.397 122.654 467.07 121.464 467.07C120.111 467.07 119.061 467.525 118.314 468.435C117.567 469.322 117.194 470.57 117.194 472.18V481H112.784ZM133.511 472.39V471.83C133.511 470.01 133.873 468.458 134.596 467.175C135.32 465.868 136.276 464.877 137.466 464.2C138.68 463.5 139.998 463.15 141.421 463.15C143.008 463.15 144.21 463.43 145.026 463.99C145.843 464.55 146.438 465.133 146.811 465.74H147.441V463.64H151.781V484.08C151.781 485.27 151.431 486.215 150.731 486.915C150.031 487.638 149.098 488 147.931 488H136.311V484.15H146.391C147.045 484.15 147.371 483.8 147.371 483.1V478.585H146.741C146.508 478.958 146.181 479.343 145.761 479.74C145.341 480.113 144.781 480.428 144.081 480.685C143.381 480.942 142.495 481.07 141.421 481.07C139.998 481.07 138.68 480.732 137.466 480.055C136.276 479.355 135.32 478.363 134.596 477.08C133.873 475.773 133.511 474.21 133.511 472.39ZM142.681 477.22C144.035 477.22 145.166 476.788 146.076 475.925C146.986 475.062 147.441 473.848 147.441 472.285V471.935C147.441 470.348 146.986 469.135 146.076 468.295C145.19 467.432 144.058 467 142.681 467C141.328 467 140.196 467.432 139.286 468.295C138.376 469.135 137.921 470.348 137.921 471.935V472.285C137.921 473.848 138.376 475.062 139.286 475.925C140.196 476.788 141.328 477.22 142.681 477.22ZM164.717 481V476.94H167.937V460.56H164.717V456.5H177.317C178.811 456.5 180.106 456.757 181.202 457.27C182.322 457.76 183.186 458.472 183.792 459.405C184.422 460.315 184.737 461.412 184.737 462.695V463.045C184.737 464.165 184.527 465.087 184.107 465.81C183.687 466.51 183.186 467.058 182.602 467.455C182.042 467.828 181.506 468.097 180.992 468.26V468.89C181.506 469.03 182.066 469.298 182.672 469.695C183.279 470.068 183.792 470.617 184.212 471.34C184.656 472.063 184.877 473.008 184.877 474.175V474.525C184.877 475.878 184.562 477.045 183.932 478.025C183.302 478.982 182.427 479.717 181.307 480.23C180.211 480.743 178.927 481 177.457 481H164.717ZM172.557 476.8H176.897C177.901 476.8 178.706 476.555 179.312 476.065C179.942 475.575 180.257 474.875 180.257 473.965V473.615C180.257 472.705 179.954 472.005 179.347 471.515C178.741 471.025 177.924 470.78 176.897 470.78H172.557V476.8ZM172.557 466.58H176.827C177.784 466.58 178.566 466.335 179.172 465.845C179.802 465.355 180.117 464.678 180.117 463.815V463.465C180.117 462.578 179.814 461.902 179.207 461.435C178.601 460.945 177.807 460.7 176.827 460.7H172.557V466.58ZM196.71 481.49C194.983 481.49 193.455 481.128 192.125 480.405C190.818 479.658 189.791 478.62 189.045 477.29C188.321 475.937 187.96 474.35 187.96 472.53V472.11C187.96 470.29 188.321 468.715 189.045 467.385C189.768 466.032 190.783 464.993 192.09 464.27C193.396 463.523 194.913 463.15 196.64 463.15C198.343 463.15 199.825 463.535 201.085 464.305C202.345 465.052 203.325 466.102 204.025 467.455C204.725 468.785 205.075 470.337 205.075 472.11V473.615H192.44C192.486 474.805 192.93 475.773 193.77 476.52C194.61 477.267 195.636 477.64 196.85 477.64C198.086 477.64 198.996 477.372 199.58 476.835C200.163 476.298 200.606 475.703 200.91 475.05L204.515 476.94C204.188 477.547 203.71 478.212 203.08 478.935C202.473 479.635 201.656 480.242 200.63 480.755C199.603 481.245 198.296 481.49 196.71 481.49ZM192.475 470.325H200.595C200.501 469.322 200.093 468.517 199.37 467.91C198.67 467.303 197.748 467 196.605 467C195.415 467 194.47 467.303 193.77 467.91C193.07 468.517 192.638 469.322 192.475 470.325ZM214.39 481.49C213.153 481.49 212.045 481.28 211.065 480.86C210.085 480.417 209.303 479.787 208.72 478.97C208.16 478.13 207.88 477.115 207.88 475.925C207.88 474.735 208.16 473.743 208.72 472.95C209.303 472.133 210.096 471.527 211.1 471.13C212.126 470.71 213.293 470.5 214.6 470.5H219.36V469.52C219.36 468.703 219.103 468.038 218.59 467.525C218.076 466.988 217.26 466.72 216.14 466.72C215.043 466.72 214.226 466.977 213.69 467.49C213.153 467.98 212.803 468.622 212.64 469.415L208.58 468.05C208.86 467.163 209.303 466.358 209.91 465.635C210.54 464.888 211.368 464.293 212.395 463.85C213.445 463.383 214.716 463.15 216.21 463.15C218.496 463.15 220.305 463.722 221.635 464.865C222.965 466.008 223.63 467.665 223.63 469.835V476.31C223.63 477.01 223.956 477.36 224.61 477.36H226.01V481H223.07C222.206 481 221.495 480.79 220.935 480.37C220.375 479.95 220.095 479.39 220.095 478.69V478.655H219.43C219.336 478.935 219.126 479.308 218.8 479.775C218.473 480.218 217.96 480.615 217.26 480.965C216.56 481.315 215.603 481.49 214.39 481.49ZM215.16 477.92C216.396 477.92 217.4 477.582 218.17 476.905C218.963 476.205 219.36 475.283 219.36 474.14V473.79H214.915C214.098 473.79 213.456 473.965 212.99 474.315C212.523 474.665 212.29 475.155 212.29 475.785C212.29 476.415 212.535 476.928 213.025 477.325C213.515 477.722 214.226 477.92 215.16 477.92ZM237.047 481.49C235.367 481.49 233.839 481.14 232.462 480.44C231.109 479.74 230.036 478.725 229.242 477.395C228.449 476.065 228.052 474.455 228.052 472.565V472.075C228.052 470.185 228.449 468.575 229.242 467.245C230.036 465.915 231.109 464.9 232.462 464.2C233.839 463.5 235.367 463.15 237.047 463.15C238.704 463.15 240.127 463.442 241.317 464.025C242.507 464.608 243.464 465.413 244.187 466.44C244.934 467.443 245.424 468.587 245.657 469.87L241.387 470.78C241.294 470.08 241.084 469.45 240.757 468.89C240.431 468.33 239.964 467.887 239.357 467.56C238.774 467.233 238.039 467.07 237.152 467.07C236.266 467.07 235.461 467.268 234.737 467.665C234.037 468.038 233.477 468.61 233.057 469.38C232.661 470.127 232.462 471.048 232.462 472.145V472.495C232.462 473.592 232.661 474.525 233.057 475.295C233.477 476.042 234.037 476.613 234.737 477.01C235.461 477.383 236.266 477.57 237.152 477.57C238.482 477.57 239.486 477.232 240.162 476.555C240.862 475.855 241.306 474.945 241.492 473.825L245.762 474.84C245.459 476.077 244.934 477.208 244.187 478.235C243.464 479.238 242.507 480.032 241.317 480.615C240.127 481.198 238.704 481.49 237.047 481.49ZM249.4 481V456.5H253.81V465.775H254.44C254.627 465.402 254.919 465.028 255.315 464.655C255.712 464.282 256.237 463.978 256.89 463.745C257.567 463.488 258.419 463.36 259.445 463.36C260.799 463.36 261.977 463.675 262.98 464.305C264.007 464.912 264.8 465.763 265.36 466.86C265.92 467.933 266.2 469.193 266.2 470.64V481H261.79V470.99C261.79 469.683 261.464 468.703 260.81 468.05C260.18 467.397 259.27 467.07 258.08 467.07C256.727 467.07 255.677 467.525 254.93 468.435C254.184 469.322 253.81 470.57 253.81 472.18V481H249.4ZM271.283 486.145V483.765H272.648C273.721 483.765 274.258 483.228 274.258 482.155V481.035H273.663C272.729 481.035 271.948 480.755 271.318 480.195C270.711 479.635 270.408 478.923 270.408 478.06C270.408 477.127 270.711 476.368 271.318 475.785C271.948 475.202 272.729 474.91 273.663 474.91C274.619 474.91 275.401 475.213 276.008 475.82C276.614 476.403 276.918 477.197 276.918 478.2V482.225C276.918 484.838 275.611 486.145 272.998 486.145H271.283ZM298.253 481.49C295.219 481.49 292.816 480.65 291.043 478.97C289.269 477.267 288.383 474.84 288.383 471.69V465.81C288.383 462.66 289.269 460.245 291.043 458.565C292.816 456.862 295.219 456.01 298.253 456.01C301.263 456.01 303.584 456.838 305.218 458.495C306.874 460.128 307.703 462.38 307.703 465.25V465.46H303.153V465.11C303.153 463.663 302.744 462.473 301.928 461.54C301.134 460.607 299.909 460.14 298.253 460.14C296.619 460.14 295.336 460.642 294.403 461.645C293.469 462.648 293.003 464.013 293.003 465.74V471.76C293.003 473.463 293.469 474.828 294.403 475.855C295.336 476.858 296.619 477.36 298.253 477.36C299.909 477.36 301.134 476.893 301.928 475.96C302.744 475.003 303.153 473.813 303.153 472.39V471.76H307.703V472.25C307.703 475.12 306.874 477.383 305.218 479.04C303.584 480.673 301.263 481.49 298.253 481.49ZM309.514 481L315.954 456.5H324.004L330.444 481H325.684L324.354 475.61H315.604L314.274 481H309.514ZM316.689 471.34H323.269L320.294 459.405H319.664L316.689 471.34Z" fill="white"/>
</g>
<defs>
<filter id="filter0_i_829_815" x="0" y="0" width="400" height="602.279" filterUnits="userSpaceOnUse" color-interpolation-filters="sRGB">
<feFlood flood-opacity="0" result="BackgroundImageFix"/>
<feBlend mode="normal" in="SourceGraphic" in2="BackgroundImageFix" result="shape"/>
<feColorMatrix in="SourceAlpha" type="matrix" values="0 0 0 0 0 0 0 0 0 0 0 0 0 0 0 0 0 0 127 0" result="hardAlpha"/>
<feOffset dy="2.2792"/>
<feGaussianBlur stdDeviation="30.5"/>
<feComposite in2="hardAlpha" operator="arithmetic" k2="-1" k3="1"/>
<feColorMatrix type="matrix" values="0 0 0 0 0.170833 0 0 0 0 0.170833 0 0 0 0 0.170833 0 0 0 0.31 0"/>
<feBlend mode="normal" in2="shape" result="effect1_innerShadow_829_815"/>
</filter>
<filter id="filter1_i_829_815" x="13.8311" y="226.462" width="382.387" height="91.7458" filterUnits="userSpaceOnUse" color-interpolation-filters="sRGB">
<feFlood flood-opacity="0" result="BackgroundImageFix"/>
<feBlend mode="normal" in="SourceGraphic" in2="BackgroundImageFix" result="shape"/>
<feColorMatrix in="SourceAlpha" type="matrix" values="0 0 0 0 0 0 0 0 0 0 0 0 0 0 0 0 0 0 127 0" result="hardAlpha"/>
<feOffset dx="10.8262" dy="-13.1054"/>
<feGaussianBlur stdDeviation="23.3618"/>
<feComposite in2="hardAlpha" operator="arithmetic" k2="-1" k3="1"/>
<feColorMatrix type="matrix" values="0 0 0 0 0 0 0 0 0 0 0 0 0 0 0 0 0 0 0.44 0"/>
<feBlend mode="normal" in2="shape" result="effect1_innerShadow_829_815"/>
</filter>
<filter id="filter2_i_829_815" x="72.2432" y="307.905" width="269.026" height="180.095" filterUnits="userSpaceOnUse" color-interpolation-filters="sRGB">
<feFlood flood-opacity="0" result="BackgroundImageFix"/>
<feBlend mode="normal" in="SourceGraphic" in2="BackgroundImageFix" result="shape"/>
<feColorMatrix in="SourceAlpha" type="matrix" values="0 0 0 0 0 0 0 0 0 0 0 0 0 0 0 0 0 0 127 0" result="hardAlpha"/>
<feOffset dx="10.8262" dy="-13.1054"/>
<feGaussianBlur stdDeviation="23.3618"/>
<feComposite in2="hardAlpha" operator="arithmetic" k2="-1" k3="1"/>
<feColorMatrix type="matrix" values="0 0 0 0 0 0 0 0 0 0 0 0 0 0 0 0 0 0 0.1 0"/>
<feBlend mode="normal" in2="shape" result="effect1_innerShadow_829_815"/>
</filter>
</defs>
</svg>
